<?xml version="1.0" encoding="UTF-8"?>
<!-- Creator: CorelDRAW 2021 (64-Bit) -->
<svg xmlns="http://www.w3.org/2000/svg" xmlns:xlink="http://www.w3.org/1999/xlink" xmlns:xodm="http://www.corel.com/coreldraw/odm/2003" xml:space="preserve" width="80mm" height="50mm" version="1.1" style="shape-rendering:geometricPrecision; text-rendering:geometricPrecision; image-rendering:optimizeQuality; fill-rule:evenodd; clip-rule:evenodd" viewBox="0 0 8000 5000">
 <defs>
  <style type="text/css">
   <![CDATA[
    .fil3 {fill:#E31E24}
    .fil2 {fill:#006CB5}
    .fil4 {fill:#006CB5}
    .fil0 {fill:#006CB5;fill-rule:nonzero}
    .fil1 {fill:#006CB5;fill-rule:nonzero}
   ]]>
  </style>
 </defs>
 <g id="Layer_x0020_1">
  <metadata id="CorelCorpID_0Corel-Layer"></metadata>
  <g id="_2192222966576">
   <path class="fil0" d="M1474.74 1988.96l271.78 0 0 815.4 -271.78 0 0 -815.4zm468.15 0l253.38 0 330.4 451.08 0 -451.08 255.63 0 0 815.4 -255.63 0 -328.76 -447.67 0 447.67 -255.02 0 0 -815.4zm1547.46 680.79l-308.96 0 -42.52 134.61 -277.07 0 329.8 -815.4 295.68 0 330 815.4 -283.82 0 -43.11 -134.61zm-56.81 -176.36l-97.06 -293.14 -96.46 293.14 193.52 0zm467.52 -504.43l356.78 0 137.72 496.07 137.12 -496.07 355.54 0 0 815.4 -221.49 0 0 -621.76 -171.86 621.76 -200.46 0 -171.23 -621.76 0 621.76 -222.12 0 0 -815.4zm1163.72 0l402.96 0c79.28,0 143.44,10.05 192.49,29.99 48.83,20.13 89.29,48.8 121.17,86.2 31.87,37.59 54.97,81.06 69.47,130.8 14.3,49.74 21.46,102.33 21.46,157.96 0,87.14 -10.63,154.72 -32.08,202.75 -21.26,48.04 -50.88,88.28 -88.89,120.56 -37.8,32.46 -78.46,54.11 -121.99,64.92 -59.46,14.82 -113.41,22.22 -161.63,22.22l-402.96 0 0 -815.4zm271.15 184.72l0 445.39 66.41 0c56.81,0 97.07,-5.7 120.97,-17.48 23.91,-11.58 42.71,-32.08 56.41,-61.13 13.48,-29.05 20.23,-76.31 20.23,-141.61 0,-86.39 -15.12,-145.44 -45.37,-177.33 -30.44,-31.89 -80.72,-47.84 -151.01,-47.84l-67.64 0zm1166.17 496.07l-308.95 0 -42.52 134.61 -277.07 0 329.79 -815.4 295.68 0 330 815.4 -283.82 0 -43.11 -134.61zm-56.8 -176.36l-97.07 -293.14 -96.45 293.14 193.52 0zm474.06 310.97l0 -815.4 452 0c83.77,0 147.94,6.63 192.07,20.12 44.34,13.29 80.11,37.98 107.29,74.23 27.17,36.07 40.66,80.12 40.66,131.94 0,45.38 -10.42,84.29 -31.06,117.15 -20.85,32.84 -49.45,59.41 -85.62,79.91 -23.29,12.92 -54.97,23.74 -95.23,32.09 32.29,10.06 55.8,20.13 70.71,30.19 9.81,6.65 24.32,20.88 43.31,42.72 19.02,22.02 31.69,38.73 38.02,50.69l131.18 236.36 -306.5 0 -144.88 -249.28c-18.39,-32.08 -34.74,-53.15 -49.25,-62.84 -19.4,-12.52 -41.69,-18.79 -66.41,-18.79l-23.91 0 0 330.91 -272.38 0zm272.38 -485.07l114.43 0c12.27,0 36.17,-3.6 71.72,-11 17.99,-3.42 32.7,-11.96 44.14,-25.63 11.24,-13.67 16.97,-29.44 16.97,-47.28 0,-26.39 -8.99,-46.51 -26.98,-60.57 -17.98,-14.23 -51.69,-21.25 -101.14,-21.25l-119.14 0 0 165.73z"></path>
   <path class="fil1" d="M1474.73 3454.06l0 -434.86 155.07 0 93.06 296.66 91.99 -296.66 155.42 0 0 434.86 -96.17 0 0 -342.32 -101.9 342.32 -99.75 0 -101.55 -342.32 0 342.32 -96.17 0zm597.8 -434.86l103.58 0 0 235.51c0,37.36 1.31,61.66 3.82,72.69 4.42,17.82 15.06,32.1 31.66,42.83 16.73,10.83 39.54,16.2 68.45,16.2 29.39,0 51.61,-5.06 66.54,-15.29 14.94,-10.12 23.9,-22.68 26.88,-37.46 3.11,-14.88 4.54,-39.49 4.54,-73.91l0 -240.57 103.58 0 0 228.42c0,52.24 -2.75,89.1 -8.36,110.66 -5.62,21.57 -15.89,39.69 -30.95,54.57 -15.05,14.79 -35.24,26.63 -60.32,35.44 -25.21,8.81 -58.18,13.16 -98.8,13.16 -48.98,0 -86.13,-4.76 -111.46,-14.37 -25.33,-9.62 -45.28,-22.08 -59.97,-37.36 -14.7,-15.29 -24.37,-31.39 -29.03,-48.2 -6.81,-24.9 -10.16,-61.66 -10.16,-110.36l0 -231.96zm521.11 434.86l0 -431.31 103.57 0 0 358.01 257.57 0 0 73.3 -361.14 0zm497.33 0l0 -361.25 -152.2 0 0 -73.61 407.73 0 0 73.61 -151.84 0 0 361.25 -103.69 0zm319.2 0l0 -434.86 103.58 0 0 434.86 -103.58 0zm176.09 -141.44l100.83 -8.4c5.97,28.75 18.28,49.81 36.92,63.28 18.51,13.36 43.48,20.14 75.02,20.14 33.33,0 58.54,-5.97 75.38,-18.02 16.97,-11.95 25.45,-25.92 25.45,-41.91 0,-10.33 -3.59,-19.04 -10.75,-26.23 -7.05,-7.29 -19.48,-13.56 -37.28,-18.83 -12.06,-3.64 -39.78,-9.92 -82.91,-19.03 -55.54,-11.65 -94.49,-26.03 -116.83,-43.03 -31.54,-23.9 -47.31,-53.06 -47.31,-87.48 0,-22.18 7.41,-42.83 22.22,-62.17 14.81,-19.24 36.2,-33.92 64.03,-44.04 27.96,-10.03 61.53,-15.09 100.95,-15.09 64.51,0 112.9,11.95 145.51,35.84 32.49,24 49.58,55.89 51.25,95.89l-103.58 3.84c-4.42,-22.37 -13.97,-38.47 -28.55,-48.19 -14.57,-9.82 -36.43,-14.68 -65.58,-14.68 -30.11,0 -53.76,5.16 -70.73,15.69 -10.99,6.68 -16.48,15.7 -16.48,26.93 0,10.33 5.13,19.14 15.41,26.43 13.02,9.31 44.8,19.03 95.21,29.06 50.41,10.12 87.69,20.55 111.82,31.28 24.13,10.84 43.01,25.52 56.74,44.25 13.62,18.73 20.43,41.81 20.43,69.25 0,24.91 -8.12,48.3 -24.49,69.96 -16.36,21.77 -39.42,37.97 -69.29,48.5 -29.86,10.63 -67.13,15.9 -111.69,15.9 -64.87,0 -114.69,-12.66 -149.46,-38.07 -34.76,-25.42 -55.55,-62.47 -62.24,-111.07zm504.38 141.44l0 -434.86 166.18 0c62.95,0 104.05,2.23 123.16,6.58 29.39,6.48 54.12,20.66 73.95,42.53 19.83,21.87 29.75,50.12 29.75,84.64 0,26.73 -5.73,49.21 -17.2,67.33 -11.47,18.23 -25.93,32.5 -43.61,42.93 -17.56,10.33 -35.48,17.21 -53.64,20.55 -24.73,4.16 -60.57,6.28 -107.51,6.28l-67.5 0 0 164.02 -103.58 0zm103.58 -361.25l0 123.32 56.62 0c40.86,0 68.22,-2.23 81.96,-6.78 13.73,-4.56 24.49,-11.65 32.37,-21.37 7.77,-9.72 11.71,-20.95 11.71,-33.81 0,-15.8 -5.5,-28.86 -16.49,-39.19 -10.87,-10.22 -24.85,-16.7 -41.57,-19.23 -12.43,-2.03 -37.27,-2.94 -74.55,-2.94l-50.05 0zm374.52 361.25l0 -434.86 380.37 0 0 73.61 -276.8 0 0 96.39 257.57 0 0 73.2 -257.57 0 0 118.36 286.6 0 0 73.3 -390.17 0zm806.38 -159.87l100.35 26.93c-15.41,47.49 -40.98,82.72 -76.82,105.81 -35.71,22.98 -81.23,34.52 -136.3,34.52 -68.1,0 -124.13,-19.74 -167.97,-59.13 -43.84,-39.48 -65.82,-93.45 -65.82,-161.79 0,-72.39 22.1,-128.58 66.18,-168.68 44.08,-39.99 102.02,-60.04 173.94,-60.04 62.72,0 113.73,15.7 152.91,47.18 23.42,18.53 40.86,45.26 52.57,80.09l-102.62 20.76c-5.98,-22.58 -18.64,-40.4 -37.99,-53.46 -19.24,-13.06 -42.65,-19.54 -70.13,-19.54 -37.99,0 -68.93,11.54 -92.58,34.73 -23.66,23.08 -35.48,60.54 -35.48,112.38 0,54.98 11.58,94.16 35,117.45 23.29,23.39 53.64,35.03 90.91,35.03 27.6,0 51.25,-7.39 71.08,-22.28 19.83,-14.78 34.05,-38.17 42.77,-69.96zm186.13 159.87l0 -434.86 103.57 0 0 434.86 -103.57 0zm665.05 0l-112.77 0 -44.8 -98.82 -205.12 0 -42.29 98.82 -109.91 0 199.87 -434.86 109.54 0 205.48 434.86zm-190.78 -172.02l-70.72 -161.39 -69.29 161.39 140.01 0zm248.48 172.02l0 -431.31 103.58 0 0 358.01 257.57 0 0 73.3 -361.15 0zm431.87 0l0 -434.86 103.57 0 0 434.86 -103.57 0zm317.77 0l0 -361.25 -152.2 0 0 -73.61 407.73 0 0 73.61 -151.83 0 0 361.25 -103.7 0zm457.07 0l0 -183.05 -187.92 -251.81 121.5 0 120.78 172.02 118.27 -172.02 119.34 0 -188.63 252.41 0 182.45 -103.34 0z"></path>
   <path class="fil1" d="M1474.75 4109.98l0 -464.79 83.61 0 0 182.89 163.65 0 0 -182.89 83.51 0 0 464.79 -83.51 0 0 -203.23 -163.65 0 0 203.23 -83.61 0zm898.61 -229.52c0,-47.4 6.27,-87.12 18.88,-119.26 9.44,-23.59 22.25,-44.91 38.53,-63.74 16.28,-18.72 34.1,-32.68 53.46,-41.77 25.82,-12.33 55.48,-18.39 89.2,-18.39 60.97,0 109.71,21.21 146.31,63.73 36.6,42.42 54.9,101.51 54.9,177.16 0,75.1 -18.2,133.75 -54.52,176.17 -36.31,42.31 -84.85,63.52 -145.54,63.52 -61.55,0 -110.48,-21.1 -146.79,-63.19 -36.32,-42.21 -54.43,-100.32 -54.43,-174.23zm86.02 -3.14c0,52.59 10.89,92.52 32.46,119.69 21.67,27.16 49.13,40.69 82.45,40.69 33.23,0 60.59,-13.42 81.97,-40.48 21.29,-26.94 31.98,-67.31 31.98,-121.2 0,-53.24 -10.4,-92.96 -31.11,-119.25 -20.8,-26.19 -48.45,-39.29 -82.84,-39.29 -34.48,0 -62.22,13.31 -83.32,39.83 -20.99,26.51 -31.59,66.44 -31.59,120.01zm857.68 81.49l81.3 -8.99c4.81,30.74 14.73,53.25 29.76,67.64 14.93,14.28 35.06,21.53 60.49,21.53 26.87,0 47.2,-6.38 60.78,-19.26 13.68,-12.77 20.52,-27.7 20.52,-44.8 0,-11.04 -2.89,-20.34 -8.67,-28.03 -5.69,-7.79 -15.7,-14.5 -30.05,-20.13 -9.73,-3.89 -32.08,-10.6 -66.85,-20.34 -44.79,-12.45 -76.19,-27.81 -94.21,-45.99 -25.42,-25.54 -38.14,-56.71 -38.14,-93.5 0,-23.7 5.97,-45.78 17.92,-66.45 11.94,-20.56 29.18,-36.25 51.62,-47.07 22.54,-10.71 49.61,-16.12 81.4,-16.12 52.01,0 91.02,12.76 117.32,38.3 26.2,25.65 39.97,59.74 41.32,102.48l-83.51 4.12c-3.57,-23.92 -11.27,-41.13 -23.02,-51.51 -11.75,-10.5 -29.38,-15.7 -52.88,-15.7 -24.28,0 -43.35,5.52 -57.03,16.78 -8.86,7.14 -13.29,16.77 -13.29,28.78 0,11.04 4.14,20.46 12.43,28.25 10.5,9.95 36.12,20.34 76.77,31.06 40.64,10.82 70.7,21.96 90.15,33.43 19.46,11.58 34.68,27.28 45.76,47.29 10.98,20.03 16.47,44.7 16.47,74.02 0,26.63 -6.55,51.62 -19.75,74.78 -13.19,23.27 -31.78,40.58 -55.86,51.84 -24.09,11.36 -54.14,16.99 -90.07,16.99 -52.3,0 -92.47,-13.53 -120.5,-40.69 -28.03,-27.16 -44.79,-66.77 -50.18,-118.71zm905.07 151.17l0 -464.79 133.99 0c50.76,0 83.89,2.39 99.3,7.04 23.7,6.92 43.64,22.08 59.63,45.45 15.99,23.37 23.98,53.57 23.98,90.47 0,28.57 -4.62,52.59 -13.87,71.96 -9.25,19.48 -20.9,34.74 -35.16,45.89 -14.16,11.03 -28.61,18.39 -43.25,21.96 -19.93,4.44 -48.83,6.71 -86.69,6.71l-54.42 0 0 175.31 -83.51 0zm83.51 -386.11l0 131.81 45.66 0c32.94,0 55,-2.39 66.08,-7.26 11.07,-4.86 19.74,-12.44 26.1,-22.83 6.26,-10.39 9.44,-22.4 9.44,-36.14 0,-16.88 -4.43,-30.84 -13.29,-41.88 -8.77,-10.93 -20.04,-17.86 -33.52,-20.56 -10.02,-2.17 -30.06,-3.14 -60.11,-3.14l-40.36 0zm797.77 386.11l0 -464.79 83.51 0 0 464.79 -83.51 0zm754.61 0l0 -386.11 -122.71 0 0 -78.68 328.75 0 0 78.68 -122.43 0 0 386.11 -83.61 0zm1088.57 0l-90.93 0 -36.12 -105.62 -165.39 0 -34.1 105.62 -88.61 0 161.14 -464.79 88.33 0 165.68 464.79zm-153.83 -183.86l-57.02 -172.49 -55.87 172.49 112.89 0zm698.75 183.86l0 -461 83.51 0 0 382.66 207.67 0 0 78.34 -291.18 0z"></path>
   <path class="fil2" d="M5907.86 1598.77l76.07 23.36c-11.67,42.84 -31.15,74.63 -58.32,95.47 -27.17,20.73 -61.59,31.15 -103.35,31.15 -51.71,0 -94.18,-17.67 -127.52,-52.99 -33.23,-35.31 -49.9,-83.59 -49.9,-144.91 0,-64.76 16.75,-115.12 50.18,-150.98 33.42,-35.86 77.43,-53.8 131.95,-53.8 47.65,0 86.33,14.13 116.04,42.3 17.75,16.66 30.96,40.57 39.84,71.82l-77.7 18.48c-4.63,-20.11 -14.23,-36.05 -28.81,-47.73 -14.67,-11.69 -32.43,-17.49 -53.26,-17.49 -28.89,0 -52.35,10.34 -70.28,31.07 -18.03,20.65 -26.99,54.16 -26.99,100.54 0,49.09 8.88,84.13 26.53,104.97 17.75,20.92 40.77,31.34 69.11,31.34 20.92,0 38.95,-6.61 53.99,-19.93 15.02,-13.31 25.9,-34.14 32.42,-62.67zm140.85 143.46l0 -389.1 78.78 0 0 389.1 -78.78 0zm152.6 0l0 -389.1 118.02 0 69.74 265.37 68.93 -265.37 118.28 0 0 389.1 -72.82 0 -0.27 -306.31 -76.72 306.31 -75.72 0 -76.34 -306.31 -0.27 306.31 -72.83 0zm453.76 0l0 -389.1 288.02 0 0 65.76 -209.22 0 0 86.41 194.55 0 0 65.74 -194.55 0 0 105.43 216.82 0 0 65.76 -295.62 0zm449.96 0l0 -323.34 -115.21 0 0 -65.76 308.67 0 0 65.76 -114.66 0 0 323.34 -78.8 0zm243.26 -251.06l-14.02 -72.38 0 -65.66 80.97 0 0 65.66 -12.15 72.38 -54.8 0zm109.79 124.98l76.61 -7.61c4.63,25.63 13.86,44.39 27.9,56.43 14.04,12.04 32.97,18.02 56.8,18.02 25.17,0 44.19,-5.33 56.97,-16.02 12.77,-10.69 19.19,-23.19 19.19,-37.51 0,-9.23 -2.71,-17.02 -8.06,-23.54 -5.34,-6.44 -14.76,-12.05 -28.17,-16.75 -9.15,-3.27 -29.97,-8.88 -62.58,-17.03 -41.94,-10.52 -71.36,-23.37 -88.3,-38.67 -23.83,-21.48 -35.69,-47.65 -35.69,-78.53 0,-19.84 5.62,-38.5 16.75,-55.8 11.23,-17.29 27.36,-30.42 48.46,-39.49 21.11,-9.06 46.47,-13.58 76.35,-13.58 48.63,0 85.32,10.77 109.87,32.42 24.63,21.65 37.48,50.45 38.75,86.59l-78.78 2.72c-3.36,-20.11 -10.52,-34.51 -21.48,-43.3 -10.96,-8.78 -27.44,-13.21 -49.36,-13.21 -22.63,0 -40.39,4.7 -53.16,14.12 -8.25,6.07 -12.41,14.13 -12.41,24.28 0,9.23 3.89,17.11 11.68,23.63 9.88,8.43 33.88,17.12 72.01,26.17 38.13,8.98 66.3,18.39 84.5,28 18.29,9.69 32.61,22.82 42.94,39.57 10.31,16.75 15.48,37.4 15.48,61.95 0,22.29 -6.16,43.21 -18.57,62.67 -12.41,19.48 -29.89,33.98 -52.52,43.4 -22.65,9.5 -50.91,14.21 -84.7,14.21 -49.17,0 -86.95,-11.31 -113.29,-34.05 -26.36,-22.64 -42.03,-55.71 -47.19,-99.09z"></path>
   <g>
    <polygon class="fil3" points="819.68,1466.29 819.68,1879.76 207.84,1879.76 207.84,1466.29 "></polygon>
    <polygon class="fil3" points="818.96,1879.15 1263.86,1879.15 1263.86,2447.91 818.96,2447.91 "></polygon>
    <polygon class="fil3" points="818.96,894.06 1263.86,894.06 1263.86,1466.39 818.96,1466.39 "></polygon>
    <polygon class="fil4" points="1982.21,1466.29 1263.86,1879.76 1263.86,1466.29 "></polygon>
   </g>
  </g>
 </g>
</svg>
