<?xml version="1.0" encoding="utf-8"?>
<!-- Generator: Adobe Illustrator 27.7.0, SVG Export Plug-In . SVG Version: 6.00 Build 0)  -->
<svg version="1.1" id="Isolation_Mode" xmlns="http://www.w3.org/2000/svg" xmlns:xlink="http://www.w3.org/1999/xlink" x="0px"
	 y="0px" viewBox="0 0 250.09 137" style="enable-background:new 0 0 250.09 137;" xml:space="preserve">
<style type="text/css">
	.st0{fill-rule:evenodd;clip-rule:evenodd;fill:#00963F;}
	.st1{fill-rule:evenodd;clip-rule:evenodd;fill:#D7B46A;}
	.st2{fill-rule:evenodd;clip-rule:evenodd;}
</style>
<g>
	<g>
		<path class="st0" d="M17.08,85.69c-0.45-2.41-2.78-2.46-3.68-4.41C13.88,83.88,16.19,83.95,17.08,85.69z"/>
		<path class="st0" d="M17.97,92.47c0,0,1.44-5.05,8.34-4.69c0.22-0.01-4.83-0.94-7.85,3.01c0.08,0.35,1.69-6.63,10.19-2.7
			c-4.22,0.6-4.66,3.52-9.57,2.93c0,0-0.72,1.07-0.82,1.97L17.97,92.47z"/>
		<path class="st0" d="M17.88,83.1c1.51-2.74,6.07-8.23,18.63-9.79c0.43-0.08-7.4,0.15-13.89,4.24c-1.51,0.96-3.13,2.19-4.16,3.42
			c-0.13,0.16-0.26,0.32-0.38,0.5c0.52-1.26,1.37-2.55,2.21-3.75c3.27-4.7,10.37-7.22,23.86-4.8c-11.57,1.32-10.48,7.81-23.2,8.68
			c-0.62,0.07-1.47,0-1.94,0.36c-0.57,0.43-1.23,1.43-1.39,2.53L17.88,83.1z"/>
		<path class="st0" d="M16.92,111.62c2.87-10.66-2.51-26.34,2.04-38.46C16.24,85.58,21.79,102.72,16.92,111.62z"/>
	</g>
	<path class="st1" d="M38.15,69.1c-1.6,1.18-3.69,1.36-5.32,0.59c0,0-0.44-0.18-0.86-0.65c-0.35-0.44-9.33-10.56-9.33-10.56
		l-0.03-0.03c2.77,0.5,5.81-0.83,7.38-3.24c1.57-2.3,1.51-5.58,0.03-7.88c-1.77-2.51-5.23-3.34-8.13-2.95
		c-5.02,0.71-8.63,5.16-9.74,9.82c-1.15,5.31-0.33,10.32,1.48,15.04c0.41,1.01,0.97,2.04,1.65,2.93c-5.28-2.31-9.95-6.55-12.4-12.25
		c-2.72-6.14-2.66-13.9,0.56-20.12c2.54-4.81,7.03-9.26,12.58-11.15c5.81-2.39,13.64-1.89,19.31,1.3
		c6.87,3.43,12.07,11.95,12.1,19.56C47.69,57.39,44.2,64.53,38.15,69.1z"/>
	<path class="st1" d="M18.83,72.09c-2.57-2.78-4.63-6.37-3.07-10.12c1.39-2.86,2.62-5.78,3.22-9.09c0.24,3.45,2.33,6.52,3.33,9.83
		c0.39,1.59,0.42,3.24-0.2,4.89c-0.68,1.8-1.77,3.34-3.07,4.72L18.83,72.09z"/>
	<g>
		<path class="st2" d="M90.28,75.55h-9.7c-2.16-3.37-4.1-6.29-5.84-8.74c-1.74-2.46-3.62-4.99-5.65-7.6H65.4v11.43
			c0,0.6,0.1,1.12,0.27,1.56c0.19,0.45,0.59,0.79,1.2,1.03c0.31,0.13,0.84,0.24,1.6,0.33c0.76,0.11,1.4,0.16,1.93,0.18v1.8H55.15
			v-1.8c0.41-0.04,0.99-0.1,1.78-0.18c0.77-0.08,1.3-0.19,1.61-0.33c0.51-0.22,0.88-0.53,1.11-0.97c0.23-0.42,0.34-0.96,0.34-1.62
			V44.59c0-0.6-0.08-1.12-0.26-1.58c-0.16-0.46-0.55-0.81-1.19-1.04c-0.42-0.15-0.98-0.3-1.66-0.41c-0.68-0.13-1.24-0.2-1.72-0.25
			v-1.8H71.8c1.53,0,2.96,0.16,4.3,0.47c1.34,0.31,2.55,0.82,3.64,1.51c1.05,0.68,1.88,1.56,2.5,2.66c0.63,1.09,0.96,2.41,0.96,3.95
			c0,1.39-0.22,2.62-0.64,3.68c-0.43,1.07-1.05,1.99-1.88,2.77c-0.76,0.73-1.68,1.36-2.75,1.89c-1.07,0.54-2.25,0.99-3.53,1.36
			c1.78,2.36,3.25,4.34,4.43,5.95c1.18,1.6,2.63,3.55,4.34,5.85c0.74,1.03,1.42,1.77,2.02,2.26c0.6,0.48,1.21,0.87,1.79,1.18
			c0.44,0.22,0.99,0.39,1.66,0.51c0.66,0.11,1.2,0.18,1.64,0.2V75.55L90.28,75.55z M76.91,48.67L76.91,48.67
			c0-2.18-0.62-3.91-1.88-5.19c-1.25-1.28-3.03-1.92-5.32-1.92H65.4v15.47h3.34c2.33,0,4.28-0.74,5.83-2.25
			C76.14,53.28,76.91,51.25,76.91,48.67L76.91,48.67z M113.29,69.65L113.29,69.65c-1.05,2.01-2.46,3.59-4.22,4.78
			c-1.77,1.19-3.79,1.78-6.08,1.78c-2.02,0-3.79-0.35-5.3-1.06c-1.52-0.71-2.77-1.67-3.75-2.89c-0.98-1.21-1.71-2.65-2.21-4.27
			c-0.47-1.63-0.71-3.34-0.71-5.16c0-1.62,0.26-3.22,0.77-4.79c0.52-1.56,1.28-2.97,2.28-4.23c0.97-1.2,2.16-2.17,3.6-2.9
			c1.43-0.74,3.04-1.11,4.82-1.11c1.83,0,3.4,0.28,4.7,0.87c1.31,0.57,2.37,1.36,3.18,2.36c0.78,0.95,1.36,2.07,1.74,3.35
			c0.39,1.3,0.57,2.69,0.57,4.19v1.68h-16.6c0,1.65,0.15,3.14,0.47,4.47c0.31,1.35,0.81,2.52,1.5,3.54
			c0.66,0.97,1.52,1.75,2.58,2.32c1.07,0.56,2.34,0.85,3.82,0.85c1.51,0,2.81-0.35,3.91-1.06c1.09-0.7,2.14-1.97,3.16-3.8
			L113.29,69.65L113.29,69.65z M107.68,60.11L107.68,60.11c0-0.95-0.08-1.97-0.24-3.06c-0.16-1.08-0.42-1.98-0.77-2.71
			c-0.39-0.78-0.93-1.42-1.6-1.91c-0.68-0.5-1.56-0.74-2.62-0.74c-1.78,0-3.26,0.74-4.43,2.22c-1.19,1.48-1.82,3.54-1.92,6.19
			H107.68L107.68,60.11z M127.46,75.55L127.46,75.55h-11.81v-1.62c0.38-0.03,0.78-0.08,1.21-0.12c0.43-0.03,0.78-0.09,1.06-0.18
			c0.46-0.14,0.8-0.4,1.03-0.77c0.23-0.36,0.36-0.84,0.34-1.43l-0.38-26.74c-0.01-0.3-0.14-1.17-0.29-1.78
			c-0.07-0.27-0.15-0.49-0.22-0.58c-0.08-0.09-0.11-0.18-0.21-0.27c-0.43-0.39,0.1,0.14-0.3-0.21c-0.26-0.23,0.11-0.09-0.68-0.25
			c-0.77-0.16-2.07,0.2-2.55,0.16L114.61,40l8.8-0.48l0.42,0.36l0.03,31.25c0,0.57,0.11,1.03,0.32,1.41
			c0.21,0.37,0.56,0.65,1.03,0.84c0.36,0.17,0.71,0.29,1.07,0.37c0.35,0.09,0.76,0.15,1.19,0.18V75.55L127.46,75.55z M142.63,75.55
			L142.63,75.55h-12.02v-1.66c0.39-0.04,0.78-0.06,1.2-0.1c0.41-0.04,0.76-0.1,1.07-0.21c0.47-0.15,0.82-0.41,1.04-0.79
			c0.23-0.38,0.34-0.87,0.34-1.47V55.98c0-0.54-0.13-1.03-0.36-1.48c-0.24-0.45-0.59-0.81-1.02-1.11c-0.32-0.21-0.78-0.38-1.39-0.52
			c-0.6-0.14-1.15-0.23-1.66-0.26v-1.63l8.77-0.56l0.36,0.35v20.25c0,0.59,0.11,1.08,0.33,1.46c0.22,0.38,0.58,0.67,1.08,0.85
			c0.37,0.16,0.73,0.28,1.08,0.37c0.36,0.09,0.75,0.15,1.18,0.19V75.55L142.63,75.55z M139.46,40.62L139.46,40.62
			c0,0.95-0.31,1.78-0.95,2.5c-0.63,0.72-1.4,1.08-2.33,1.08c-0.86,0-1.61-0.34-2.24-1.02c-0.62-0.68-0.95-1.46-0.95-2.33
			c0-0.93,0.32-1.73,0.95-2.41c0.63-0.69,1.38-1.03,2.24-1.03c0.95,0,1.74,0.32,2.35,0.96C139.14,39.01,139.46,39.76,139.46,40.62
			L139.46,40.62z M169.45,75.08L169.45,75.08c-0.81,0.29-1.5,0.52-2.1,0.71c-0.61,0.17-1.28,0.27-2.05,0.27
			c-1.33,0-2.38-0.32-3.17-0.94c-0.79-0.63-1.29-1.52-1.51-2.7h-0.15c-1.1,1.22-2.28,2.15-3.55,2.79c-1.25,0.64-2.77,0.96-4.55,0.96
			c-1.89,0-3.43-0.57-4.64-1.72c-1.22-1.15-1.83-2.66-1.83-4.52c0-0.97,0.14-1.83,0.41-2.59c0.27-0.76,0.67-1.45,1.22-2.07
			c0.42-0.5,0.98-0.95,1.68-1.35c0.69-0.4,1.35-0.73,1.96-0.96c0.77-0.29,2.31-0.82,4.63-1.61c2.34-0.78,3.91-1.39,4.72-1.83v-2.52
			c0-0.21-0.04-0.64-0.14-1.26c-0.1-0.63-0.3-1.23-0.6-1.78c-0.34-0.63-0.82-1.18-1.45-1.64c-0.61-0.47-1.49-0.7-2.62-0.7
			c-0.78,0-1.51,0.13-2.17,0.4c-0.67,0.26-1.15,0.54-1.42,0.82c0,0.34,0.08,0.84,0.25,1.5c0.16,0.66,0.24,1.26,0.24,1.83
			c0,0.59-0.26,1.13-0.79,1.62c-0.54,0.49-1.28,0.74-2.24,0.74c-0.83,0-1.46-0.3-1.86-0.91c-0.4-0.6-0.6-1.27-0.6-2.02
			c0-0.78,0.27-1.52,0.82-2.24c0.55-0.71,1.27-1.34,2.16-1.89c0.76-0.48,1.67-0.88,2.76-1.22c1.08-0.33,2.14-0.49,3.17-0.49
			c1.42,0,2.67,0.11,3.73,0.29c1.06,0.19,2.01,0.62,2.88,1.26c0.86,0.62,1.51,1.47,1.96,2.55c0.45,1.07,0.68,2.47,0.68,4.15
			c0,2.43-0.03,4.56-0.08,6.44c-0.05,1.88-0.08,3.92-0.08,6.14c0,0.66,0.11,1.18,0.35,1.57c0.22,0.39,0.58,0.72,1.05,1
			c0.26,0.14,0.66,0.23,1.2,0.25c0.56,0.02,1.12,0.03,1.7,0.03V75.08L169.45,75.08z M160.58,61.68L160.58,61.68
			c-1.44,0.42-2.71,0.84-3.79,1.25c-1.09,0.41-2.09,0.91-3.03,1.53c-0.84,0.57-1.51,1.26-2,2.04c-0.49,0.78-0.74,1.72-0.74,2.8
			c0,1.41,0.37,2.45,1.11,3.11c0.74,0.66,1.67,0.98,2.8,0.98c1.21,0,2.26-0.29,3.18-0.87c0.91-0.58,1.68-1.27,2.31-2.08
			L160.58,61.68L160.58,61.68z M199.62,75.55L199.62,75.55h-12.28v-1.67c0.39-0.04,0.82-0.08,1.29-0.11
			c0.47-0.03,0.84-0.1,1.15-0.21c0.47-0.15,0.83-0.42,1.06-0.8c0.23-0.38,0.35-0.87,0.35-1.48V58.4c0-1.78-0.42-3.15-1.26-4.11
			c-0.84-0.97-1.86-1.45-3.06-1.45c-0.9,0-1.72,0.14-2.47,0.41c-0.74,0.28-1.4,0.63-1.97,1.04c-0.56,0.39-1.01,0.81-1.34,1.26
			c-0.33,0.45-0.57,0.81-0.72,1.07v14.41c0,0.57,0.11,1.05,0.36,1.42c0.23,0.38,0.59,0.66,1.06,0.86c0.36,0.18,0.74,0.3,1.16,0.39
			c0.41,0.09,0.84,0.15,1.28,0.19v1.67h-12.29v-1.67c0.4-0.04,0.8-0.08,1.21-0.11c0.42-0.03,0.77-0.1,1.09-0.21
			c0.47-0.15,0.83-0.42,1.05-0.8c0.24-0.38,0.35-0.87,0.35-1.48V55.82c0-0.58-0.12-1.11-0.38-1.59c-0.24-0.48-0.59-0.88-1.02-1.19
			c-0.32-0.2-0.7-0.35-1.15-0.44c-0.45-0.1-0.92-0.16-1.42-0.19v-1.65l8.34-0.56l0.36,0.35v3.53h0.12c0.41-0.41,0.92-0.9,1.53-1.46
			c0.6-0.57,1.18-1.03,1.72-1.39c0.64-0.41,1.38-0.75,2.24-1.02c0.87-0.27,1.84-0.41,2.93-0.41c2.4,0,4.18,0.76,5.35,2.24
			c1.17,1.5,1.74,3.49,1.74,5.99v13.03c0,0.6,0.1,1.08,0.31,1.44c0.2,0.36,0.54,0.65,1.04,0.85c0.41,0.17,0.76,0.28,1.05,0.36
			c0.3,0.06,0.71,0.12,1.24,0.16V75.55L199.62,75.55z M214.29,76.21L214.29,76.21c-3.63,0-6.46-1.21-8.52-3.61
			c-2.05-2.4-3.07-5.62-3.07-9.67c0-1.76,0.28-3.41,0.82-4.94c0.56-1.54,1.36-2.93,2.41-4.18c1-1.2,2.26-2.17,3.77-2.9
			c1.5-0.74,3.15-1.11,4.93-1.11c2.46,0,4.46,0.59,6,1.77c1.54,1.17,2.31,2.78,2.31,4.81c0,0.86-0.2,1.6-0.6,2.25
			c-0.41,0.66-1.07,0.98-2.01,0.98c-1,0-1.77-0.26-2.33-0.76c-0.55-0.5-0.83-1.08-0.83-1.71c0-0.76,0.1-1.54,0.31-2.35
			c0.2-0.8,0.32-1.39,0.35-1.76c-0.3-0.52-0.75-0.88-1.37-1.05c-0.6-0.18-1.24-0.27-1.94-0.27c-0.81,0-1.59,0.18-2.33,0.52
			c-0.74,0.35-1.45,0.99-2.14,1.92c-0.64,0.85-1.13,2-1.53,3.43c-0.39,1.44-0.59,3.16-0.59,5.15c0,3.16,0.7,5.72,2.1,7.72
			c1.4,1.99,3.24,2.99,5.5,2.99c1.65,0,3.03-0.4,4.13-1.2c1.11-0.79,2.14-1.98,3.09-3.58l1.63,1.07c-1.12,2.01-2.59,3.58-4.43,4.75
			C218.13,75.63,216.23,76.21,214.29,76.21L214.29,76.21z M248.62,69.65L248.62,69.65c-1.06,2.01-2.46,3.59-4.22,4.78
			c-1.76,1.19-3.8,1.78-6.07,1.78c-2.03,0-3.79-0.35-5.3-1.06c-1.52-0.71-2.77-1.67-3.75-2.89c-0.98-1.21-1.72-2.65-2.2-4.27
			c-0.48-1.63-0.71-3.34-0.71-5.16c0-1.62,0.26-3.22,0.76-4.79c0.52-1.56,1.28-2.97,2.29-4.23c0.97-1.2,2.16-2.17,3.59-2.9
			c1.44-0.74,3.04-1.11,4.82-1.11c1.83,0,3.4,0.28,4.7,0.87c1.31,0.57,2.37,1.36,3.19,2.36c0.78,0.95,1.36,2.07,1.74,3.35
			c0.38,1.3,0.57,2.69,0.57,4.19v1.68H231.4c0,1.65,0.16,3.14,0.47,4.47c0.31,1.35,0.81,2.52,1.49,3.54
			c0.65,0.97,1.51,1.75,2.58,2.32c1.07,0.56,2.34,0.85,3.81,0.85c1.51,0,2.82-0.35,3.91-1.06c1.08-0.7,2.14-1.97,3.16-3.8
			L248.62,69.65L248.62,69.65z M243,60.11L243,60.11c0-0.95-0.08-1.97-0.24-3.06c-0.17-1.08-0.42-1.98-0.77-2.71
			c-0.39-0.78-0.93-1.42-1.61-1.91c-0.67-0.5-1.55-0.74-2.62-0.74c-1.78,0-3.25,0.74-4.44,2.22c-1.18,1.48-1.81,3.54-1.92,6.19H243z
			"/>
		<g>
			<path class="st0" d="M65.72,86.56H65c-0.14-0.49-0.41-1.02-0.82-1.58c-0.42-0.56-0.82-0.87-1.2-0.93
				c-0.2-0.02-0.42-0.04-0.69-0.05c-0.27-0.02-0.57-0.02-0.91-0.02h-2.24v5.37h1.54c0.47,0,0.83-0.05,1.08-0.14
				c0.26-0.1,0.48-0.25,0.66-0.45c0.13-0.14,0.24-0.36,0.35-0.65c0.1-0.3,0.17-0.61,0.2-0.94h0.72v5.27h-0.72
				c-0.02-0.28-0.09-0.59-0.2-0.95c-0.11-0.35-0.23-0.61-0.35-0.76c-0.18-0.24-0.42-0.4-0.71-0.48c-0.28-0.09-0.63-0.13-1.03-0.13
				h-1.54v4.6c0,0.2,0.04,0.39,0.13,0.55c0.08,0.16,0.23,0.3,0.44,0.39c0.1,0.05,0.3,0.1,0.62,0.16c0.32,0.06,0.56,0.1,0.73,0.1
				v0.68h-5.84v-0.68c0.19-0.01,0.44-0.03,0.76-0.06c0.32-0.03,0.52-0.06,0.61-0.11c0.19-0.08,0.33-0.21,0.42-0.36
				c0.08-0.16,0.13-0.35,0.13-0.58v-9.64c0-0.21-0.04-0.39-0.1-0.55c-0.07-0.16-0.22-0.29-0.44-0.4c-0.17-0.08-0.4-0.15-0.68-0.21
				c-0.29-0.07-0.52-0.1-0.69-0.11v-0.68h10.49V86.56L65.72,86.56z M75.63,91.87L75.63,91.87c0,0.66-0.11,1.29-0.31,1.93
				c-0.2,0.63-0.5,1.16-0.89,1.61c-0.43,0.5-0.94,0.87-1.51,1.12c-0.58,0.25-1.22,0.37-1.93,0.37c-0.59,0-1.16-0.11-1.69-0.33
				c-0.54-0.22-1.01-0.54-1.43-0.97c-0.41-0.42-0.74-0.93-0.98-1.54c-0.25-0.6-0.37-1.28-0.37-2.04c0-1.45,0.43-2.63,1.27-3.56
				c0.85-0.92,1.96-1.38,3.33-1.38c1.31,0,2.38,0.43,3.23,1.31C75.21,89.25,75.63,90.42,75.63,91.87L75.63,91.87z M73.68,91.89
				L73.68,91.89c0-0.47-0.05-0.97-0.14-1.49c-0.1-0.53-0.24-0.97-0.42-1.33c-0.2-0.39-0.47-0.7-0.8-0.94
				c-0.33-0.23-0.74-0.35-1.2-0.35c-0.49,0-0.9,0.12-1.24,0.36c-0.35,0.24-0.62,0.57-0.84,0.98c-0.2,0.38-0.35,0.82-0.42,1.31
				c-0.09,0.49-0.13,0.96-0.13,1.42c0,0.6,0.05,1.16,0.15,1.67c0.1,0.51,0.25,0.97,0.47,1.37c0.22,0.4,0.49,0.72,0.81,0.94
				c0.33,0.23,0.73,0.35,1.21,0.35c0.79,0,1.41-0.38,1.88-1.14C73.44,94.28,73.68,93.23,73.68,91.89L73.68,91.89z M87.2,96.42
				L87.2,96.42l-3.05,0.21l-0.14-0.13v-1.18h-0.06c-0.15,0.16-0.32,0.33-0.5,0.5c-0.19,0.18-0.4,0.35-0.65,0.49
				c-0.28,0.18-0.55,0.3-0.82,0.39c-0.26,0.08-0.64,0.13-1.12,0.13c-0.82,0-1.44-0.27-1.87-0.8c-0.43-0.54-0.64-1.32-0.64-2.35
				v-4.45c0-0.22-0.04-0.41-0.13-0.56c-0.09-0.16-0.21-0.29-0.38-0.4c-0.11-0.07-0.26-0.13-0.42-0.16
				c-0.17-0.04-0.35-0.06-0.54-0.07v-0.62l3.11-0.21l0.14,0.13v6.46c0,0.67,0.15,1.18,0.45,1.52c0.3,0.34,0.66,0.51,1.08,0.51
				c0.35,0,0.65-0.05,0.92-0.16c0.27-0.1,0.5-0.23,0.68-0.38c0.17-0.13,0.32-0.27,0.45-0.42c0.13-0.15,0.23-0.28,0.29-0.41v-5.27
				c0-0.21-0.05-0.39-0.13-0.55c-0.09-0.16-0.21-0.29-0.37-0.41c-0.11-0.08-0.28-0.12-0.51-0.14c-0.22-0.01-0.47-0.03-0.75-0.04
				v-0.62l3.4-0.21l0.14,0.13v7.37c0,0.21,0.04,0.39,0.13,0.55c0.09,0.15,0.21,0.28,0.37,0.38c0.11,0.07,0.25,0.11,0.4,0.14
				c0.16,0.02,0.33,0.03,0.52,0.04V96.42L87.2,96.42z M99.68,96.6L99.68,96.6H95.1v-0.62c0.14-0.01,0.3-0.03,0.48-0.04
				c0.17-0.01,0.32-0.03,0.43-0.07c0.17-0.06,0.3-0.16,0.39-0.3c0.09-0.14,0.13-0.33,0.13-0.56v-4.77c0-0.66-0.16-1.17-0.47-1.53
				c-0.31-0.35-0.69-0.54-1.13-0.54c-0.33,0-0.64,0.05-0.91,0.16c-0.28,0.1-0.52,0.23-0.73,0.38c-0.21,0.15-0.37,0.3-0.5,0.47
				c-0.12,0.16-0.21,0.3-0.27,0.4v5.34c0,0.21,0.05,0.39,0.13,0.53c0.09,0.14,0.22,0.25,0.4,0.32c0.13,0.07,0.28,0.11,0.43,0.14
				c0.15,0.03,0.31,0.05,0.48,0.06v0.62h-4.58v-0.62c0.15-0.01,0.3-0.03,0.45-0.04c0.16-0.01,0.29-0.03,0.4-0.07
				c0.18-0.06,0.31-0.16,0.39-0.3c0.09-0.14,0.13-0.33,0.13-0.55v-5.74c0-0.21-0.04-0.41-0.13-0.59c-0.09-0.18-0.21-0.33-0.38-0.44
				c-0.11-0.07-0.26-0.13-0.42-0.16c-0.16-0.04-0.34-0.06-0.53-0.07v-0.62l3.11-0.21l0.13,0.13v1.32h0.05
				c0.15-0.15,0.34-0.33,0.56-0.55c0.22-0.21,0.44-0.38,0.64-0.51c0.23-0.15,0.51-0.28,0.83-0.37c0.32-0.1,0.68-0.15,1.08-0.15
				c0.89,0,1.54,0.28,1.98,0.83c0.43,0.56,0.64,1.29,0.64,2.22v4.83c0,0.22,0.04,0.4,0.12,0.53c0.08,0.13,0.2,0.24,0.39,0.31
				c0.15,0.07,0.29,0.11,0.4,0.13c0.11,0.02,0.26,0.05,0.46,0.06V96.6L99.68,96.6z M111.25,96.42L111.25,96.42l-3.26,0.21
				l-0.14-0.13v-0.86l-0.08-0.02c-0.32,0.37-0.73,0.67-1.21,0.9c-0.48,0.24-0.97,0.35-1.48,0.35c-0.53,0-1.04-0.12-1.53-0.35
				c-0.5-0.24-0.93-0.57-1.3-0.99c-0.37-0.43-0.67-0.95-0.88-1.56c-0.22-0.61-0.33-1.29-0.33-2.02c0-0.67,0.11-1.31,0.35-1.91
				c0.24-0.6,0.56-1.13,0.96-1.58c0.38-0.42,0.85-0.76,1.41-1.01c0.56-0.25,1.12-0.37,1.7-0.37c0.43,0,0.86,0.05,1.27,0.16
				c0.42,0.11,0.78,0.25,1.08,0.42V84.4c0-0.26-0.04-0.51-0.13-0.73c-0.09-0.21-0.21-0.38-0.37-0.49c-0.17-0.12-0.41-0.21-0.71-0.26
				c-0.3-0.06-0.62-0.1-0.97-0.12v-0.58l3.82-0.22l0.14,0.14v12.53c0,0.22,0.05,0.41,0.13,0.56c0.08,0.15,0.21,0.28,0.37,0.39
				c0.12,0.08,0.3,0.12,0.53,0.14c0.22,0.02,0.43,0.03,0.62,0.04V96.42L111.25,96.42z M107.83,94.8L107.83,94.8v-5.43
				c-0.05-0.16-0.13-0.34-0.24-0.53c-0.11-0.19-0.26-0.36-0.43-0.52c-0.18-0.15-0.4-0.29-0.65-0.39c-0.25-0.1-0.53-0.15-0.86-0.15
				c-0.38,0-0.73,0.09-1.05,0.29c-0.32,0.19-0.6,0.47-0.85,0.84c-0.23,0.35-0.42,0.8-0.55,1.34c-0.14,0.54-0.2,1.14-0.2,1.8
				c0,0.53,0.05,1,0.15,1.44c0.1,0.43,0.27,0.82,0.51,1.2c0.23,0.35,0.5,0.63,0.85,0.85c0.35,0.21,0.75,0.32,1.23,0.32
				c0.51,0,0.92-0.11,1.25-0.33C107.32,95.3,107.6,95.06,107.83,94.8L107.83,94.8z M122.03,96.43L122.03,96.43
				c-0.3,0.11-0.56,0.19-0.79,0.26c-0.22,0.07-0.48,0.1-0.77,0.1c-0.5,0-0.89-0.11-1.18-0.34c-0.29-0.23-0.49-0.57-0.57-1h-0.06
				c-0.4,0.45-0.84,0.8-1.31,1.03c-0.46,0.24-1.03,0.36-1.69,0.36c-0.69,0-1.26-0.21-1.71-0.64c-0.45-0.42-0.67-0.98-0.67-1.68
				c0-0.36,0.05-0.67,0.15-0.96c0.1-0.28,0.25-0.54,0.45-0.77c0.16-0.18,0.36-0.35,0.62-0.49c0.26-0.15,0.5-0.27,0.73-0.36
				c0.28-0.11,0.86-0.3,1.72-0.59c0.86-0.28,1.45-0.51,1.75-0.68v-0.92c0-0.08-0.01-0.24-0.05-0.47c-0.04-0.24-0.11-0.45-0.22-0.66
				c-0.13-0.23-0.31-0.43-0.54-0.6c-0.23-0.17-0.56-0.26-0.98-0.26c-0.29,0-0.56,0.05-0.81,0.14c-0.25,0.1-0.43,0.2-0.53,0.31
				c0,0.12,0.03,0.31,0.09,0.55c0.06,0.24,0.09,0.47,0.09,0.67c0,0.22-0.1,0.42-0.3,0.6c-0.2,0.18-0.47,0.27-0.82,0.27
				c-0.31,0-0.54-0.11-0.69-0.33c-0.16-0.22-0.22-0.47-0.22-0.75c0-0.29,0.1-0.56,0.31-0.83c0.21-0.26,0.47-0.5,0.8-0.71
				c0.28-0.18,0.62-0.32,1.03-0.45c0.4-0.12,0.79-0.18,1.18-0.18c0.53,0,0.99,0.04,1.39,0.11c0.4,0.07,0.75,0.23,1.07,0.46
				c0.32,0.23,0.56,0.55,0.73,0.95c0.17,0.4,0.25,0.91,0.25,1.54c0,0.89-0.01,1.69-0.03,2.38c-0.02,0.69-0.02,1.45-0.02,2.27
				c0,0.24,0.04,0.44,0.13,0.59c0.08,0.14,0.21,0.26,0.39,0.36c0.1,0.06,0.25,0.09,0.45,0.09c0.21,0.01,0.42,0.01,0.63,0.01V96.43
				L122.03,96.43z M118.73,91.46L118.73,91.46c-0.54,0.16-1.01,0.31-1.42,0.46c-0.4,0.15-0.79,0.34-1.13,0.57
				c-0.31,0.21-0.56,0.47-0.75,0.76c-0.18,0.29-0.28,0.64-0.28,1.05c0,0.52,0.14,0.9,0.41,1.15c0.28,0.24,0.62,0.37,1.05,0.37
				c0.45,0,0.84-0.11,1.18-0.32c0.34-0.22,0.62-0.47,0.86-0.77L118.73,91.46L118.73,91.46z M129.33,96.2L129.33,96.2
				c-0.41,0.17-0.8,0.31-1.16,0.43c-0.36,0.11-0.81,0.17-1.34,0.17c-0.78,0-1.33-0.2-1.65-0.59c-0.32-0.39-0.47-0.95-0.47-1.66v-6.3
				h-1.68v-0.9h1.72v-2.9h1.72v2.9h2.67v0.9h-2.65v5.21c0,0.4,0.02,0.72,0.05,0.98c0.03,0.26,0.09,0.49,0.2,0.68
				c0.1,0.18,0.25,0.32,0.45,0.42c0.2,0.09,0.47,0.14,0.81,0.14c0.16,0,0.39-0.02,0.69-0.04c0.3-0.03,0.51-0.06,0.64-0.11V96.2
				L129.33,96.2z M136.21,96.6L136.21,96.6h-4.52v-0.62c0.15-0.01,0.3-0.03,0.45-0.04c0.15-0.01,0.29-0.03,0.4-0.07
				c0.17-0.06,0.31-0.16,0.39-0.3c0.09-0.14,0.13-0.33,0.13-0.55v-5.74c0-0.2-0.05-0.39-0.14-0.55c-0.09-0.17-0.21-0.31-0.37-0.42
				c-0.12-0.08-0.29-0.14-0.51-0.2c-0.23-0.05-0.43-0.08-0.62-0.1v-0.62l3.29-0.21l0.13,0.13v7.58c0,0.22,0.04,0.4,0.13,0.55
				c0.09,0.14,0.22,0.25,0.39,0.32c0.14,0.05,0.28,0.1,0.41,0.14c0.13,0.04,0.28,0.06,0.44,0.07V96.6L136.21,96.6z M135.03,83.52
				L135.03,83.52c0,0.36-0.12,0.67-0.35,0.94c-0.23,0.27-0.52,0.4-0.87,0.4c-0.32,0-0.59-0.13-0.83-0.38
				c-0.24-0.26-0.35-0.55-0.35-0.87c0-0.35,0.11-0.65,0.35-0.91c0.24-0.26,0.51-0.39,0.83-0.39c0.37,0,0.65,0.13,0.88,0.37
				C134.91,82.92,135.03,83.2,135.03,83.52L135.03,83.52z M147.09,91.87L147.09,91.87c0,0.66-0.1,1.29-0.31,1.93
				c-0.21,0.63-0.5,1.16-0.89,1.61c-0.43,0.5-0.93,0.87-1.51,1.12c-0.58,0.25-1.22,0.37-1.93,0.37c-0.59,0-1.16-0.11-1.69-0.33
				c-0.53-0.22-1.01-0.54-1.42-0.97c-0.41-0.42-0.74-0.93-0.98-1.54c-0.24-0.6-0.37-1.28-0.37-2.04c0-1.45,0.43-2.63,1.28-3.56
				c0.84-0.92,1.96-1.38,3.33-1.38c1.3,0,2.38,0.43,3.23,1.31C146.66,89.25,147.09,90.42,147.09,91.87L147.09,91.87z M145.13,91.89
				L145.13,91.89c0-0.47-0.05-0.97-0.14-1.49c-0.1-0.53-0.24-0.97-0.43-1.33c-0.2-0.39-0.47-0.7-0.79-0.94
				c-0.33-0.23-0.73-0.35-1.2-0.35c-0.48,0-0.9,0.12-1.24,0.36c-0.35,0.24-0.63,0.57-0.84,0.98c-0.21,0.38-0.35,0.82-0.43,1.31
				c-0.08,0.49-0.12,0.96-0.12,1.42c0,0.6,0.05,1.16,0.15,1.67c0.1,0.51,0.25,0.97,0.46,1.37c0.22,0.4,0.49,0.72,0.81,0.94
				c0.33,0.23,0.73,0.35,1.21,0.35c0.79,0,1.41-0.38,1.88-1.14C144.9,94.28,145.13,93.23,145.13,91.89L145.13,91.89z M159.37,96.6
				L159.37,96.6h-4.58v-0.62c0.15-0.01,0.31-0.03,0.48-0.04c0.17-0.01,0.32-0.03,0.43-0.07c0.18-0.06,0.31-0.16,0.39-0.3
				c0.09-0.14,0.13-0.33,0.13-0.56v-4.77c0-0.66-0.15-1.17-0.46-1.53c-0.31-0.35-0.69-0.54-1.13-0.54c-0.33,0-0.64,0.05-0.91,0.16
				c-0.28,0.1-0.52,0.23-0.74,0.38c-0.2,0.15-0.37,0.3-0.49,0.47c-0.12,0.16-0.21,0.3-0.27,0.4v5.34c0,0.21,0.05,0.39,0.13,0.53
				c0.09,0.14,0.22,0.25,0.39,0.32c0.13,0.07,0.28,0.11,0.43,0.14c0.16,0.03,0.32,0.05,0.48,0.06v0.62h-4.58v-0.62
				c0.14-0.01,0.29-0.03,0.45-0.04c0.16-0.01,0.29-0.03,0.4-0.07c0.17-0.06,0.31-0.16,0.39-0.3c0.09-0.14,0.13-0.33,0.13-0.55v-5.74
				c0-0.21-0.04-0.41-0.13-0.59c-0.1-0.18-0.22-0.33-0.38-0.44c-0.12-0.07-0.26-0.13-0.43-0.16c-0.16-0.04-0.34-0.06-0.53-0.07
				v-0.62l3.12-0.21l0.13,0.13v1.32h0.05c0.15-0.15,0.33-0.33,0.56-0.55c0.23-0.21,0.44-0.38,0.64-0.51
				c0.23-0.15,0.51-0.28,0.82-0.37c0.32-0.1,0.68-0.15,1.08-0.15c0.89,0,1.55,0.28,1.98,0.83c0.43,0.56,0.64,1.29,0.64,2.22v4.83
				c0,0.22,0.04,0.4,0.12,0.53c0.08,0.13,0.21,0.24,0.39,0.31c0.16,0.07,0.29,0.11,0.4,0.13c0.12,0.02,0.27,0.05,0.47,0.06V96.6
				L159.37,96.6z M183.8,96.6L183.8,96.6h-5.57v-0.68c0.15-0.01,0.37-0.03,0.65-0.06c0.28-0.02,0.48-0.06,0.58-0.11
				c0.19-0.08,0.32-0.19,0.41-0.35c0.09-0.15,0.13-0.35,0.13-0.6v-4.76h-6.28v4.66c0,0.22,0.03,0.4,0.11,0.56
				c0.08,0.15,0.22,0.28,0.44,0.39c0.11,0.06,0.3,0.12,0.58,0.17c0.28,0.06,0.5,0.09,0.66,0.09v0.68h-5.57v-0.68
				c0.15-0.01,0.37-0.03,0.65-0.06c0.29-0.02,0.48-0.06,0.59-0.11c0.19-0.08,0.32-0.19,0.4-0.35c0.09-0.15,0.14-0.35,0.14-0.6v-9.64
				c0-0.2-0.05-0.38-0.13-0.55c-0.08-0.17-0.22-0.3-0.42-0.4c-0.17-0.08-0.37-0.15-0.62-0.21c-0.24-0.07-0.45-0.1-0.62-0.11v-0.68
				h5.57v0.68c-0.18,0-0.4,0.03-0.66,0.08c-0.26,0.05-0.45,0.1-0.58,0.14c-0.22,0.08-0.36,0.2-0.44,0.38
				c-0.08,0.18-0.11,0.37-0.11,0.57v4.15h6.28v-4.06c0-0.2-0.04-0.38-0.12-0.55c-0.08-0.17-0.22-0.3-0.42-0.39
				c-0.17-0.09-0.38-0.16-0.61-0.22c-0.24-0.07-0.45-0.1-0.62-0.11v-0.68h5.57v0.68c-0.18,0-0.4,0.03-0.66,0.08
				c-0.25,0.05-0.45,0.1-0.57,0.14c-0.22,0.08-0.36,0.2-0.44,0.37c-0.07,0.18-0.11,0.37-0.11,0.58v9.64c0,0.22,0.03,0.4,0.11,0.56
				c0.07,0.15,0.22,0.28,0.44,0.39c0.11,0.06,0.3,0.12,0.57,0.17c0.28,0.06,0.5,0.09,0.66,0.09V96.6L183.8,96.6z M195.54,91.87
				L195.54,91.87c0,0.66-0.1,1.29-0.31,1.93c-0.21,0.63-0.5,1.16-0.89,1.61c-0.44,0.5-0.93,0.87-1.51,1.12
				c-0.58,0.25-1.22,0.37-1.93,0.37c-0.59,0-1.15-0.11-1.69-0.33c-0.53-0.22-1.01-0.54-1.42-0.97c-0.41-0.42-0.74-0.93-0.98-1.54
				c-0.24-0.6-0.36-1.28-0.36-2.04c0-1.45,0.43-2.63,1.27-3.56c0.85-0.92,1.96-1.38,3.33-1.38c1.31,0,2.38,0.43,3.23,1.31
				C195.12,89.25,195.54,90.42,195.54,91.87L195.54,91.87z M193.59,91.89L193.59,91.89c0-0.47-0.04-0.97-0.14-1.49
				c-0.1-0.53-0.24-0.97-0.42-1.33c-0.21-0.39-0.47-0.7-0.79-0.94c-0.33-0.23-0.73-0.35-1.21-0.35c-0.49,0-0.9,0.12-1.24,0.36
				c-0.35,0.24-0.63,0.57-0.84,0.98c-0.2,0.38-0.34,0.82-0.43,1.31c-0.08,0.49-0.12,0.96-0.12,1.42c0,0.6,0.05,1.16,0.15,1.67
				c0.1,0.51,0.25,0.97,0.47,1.37c0.21,0.4,0.48,0.72,0.8,0.94c0.33,0.23,0.73,0.35,1.21,0.35c0.79,0,1.42-0.38,1.87-1.14
				C193.36,94.28,193.59,93.23,193.59,91.89L193.59,91.89z M204.06,92.06L204.06,92.06c0.25,0.23,0.45,0.49,0.59,0.79
				c0.14,0.29,0.2,0.66,0.2,1.08c0,0.86-0.32,1.56-0.96,2.11c-0.64,0.55-1.47,0.82-2.5,0.82c-0.54,0-1.04-0.1-1.49-0.3
				c-0.45-0.2-0.78-0.38-0.97-0.55l-0.18,0.62h-0.72l-0.09-3.23h0.66c0.06,0.25,0.16,0.53,0.32,0.86c0.17,0.33,0.36,0.63,0.59,0.89
				c0.24,0.28,0.54,0.51,0.88,0.71c0.34,0.19,0.72,0.28,1.15,0.28c0.6,0,1.06-0.14,1.39-0.41c0.33-0.27,0.49-0.67,0.49-1.18
				c0-0.26-0.06-0.49-0.16-0.68c-0.11-0.19-0.26-0.36-0.46-0.5c-0.2-0.14-0.46-0.28-0.76-0.39c-0.3-0.12-0.63-0.23-1-0.35
				c-0.29-0.08-0.62-0.21-0.98-0.36c-0.36-0.15-0.67-0.34-0.92-0.54c-0.27-0.22-0.5-0.49-0.68-0.81c-0.17-0.32-0.26-0.69-0.26-1.13
				c0-0.76,0.28-1.4,0.85-1.93c0.57-0.53,1.33-0.79,2.27-0.79c0.36,0,0.73,0.04,1.12,0.14c0.38,0.09,0.69,0.21,0.93,0.34l0.21-0.52
				h0.68l0.13,2.99h-0.65c-0.13-0.66-0.42-1.2-0.85-1.61c-0.43-0.41-0.96-0.62-1.58-0.62c-0.51,0-0.92,0.13-1.21,0.39
				c-0.3,0.26-0.44,0.57-0.44,0.94c0,0.28,0.05,0.52,0.14,0.7c0.09,0.19,0.24,0.35,0.44,0.48c0.19,0.13,0.42,0.24,0.71,0.35
				c0.29,0.11,0.64,0.24,1.05,0.37c0.41,0.13,0.81,0.28,1.17,0.46C203.52,91.66,203.82,91.85,204.06,92.06L204.06,92.06z
				 M215.8,88.42L215.8,88.42c0.37,0.44,0.65,0.95,0.86,1.53c0.2,0.58,0.31,1.25,0.31,1.99c0,0.73-0.12,1.4-0.37,2.01
				c-0.25,0.61-0.57,1.12-0.96,1.55c-0.42,0.44-0.88,0.77-1.4,1c-0.52,0.23-1.06,0.35-1.64,0.35c-0.56,0-1.02-0.07-1.37-0.19
				c-0.35-0.13-0.65-0.27-0.87-0.44h-0.07v2.8c0,0.22,0.04,0.41,0.13,0.56c0.09,0.15,0.23,0.26,0.41,0.33
				c0.15,0.06,0.37,0.11,0.65,0.17c0.28,0.05,0.51,0.08,0.69,0.09v0.61h-5.22v-0.61c0.2-0.01,0.38-0.03,0.56-0.05
				c0.18-0.02,0.35-0.05,0.5-0.09c0.19-0.07,0.32-0.18,0.39-0.33c0.08-0.16,0.12-0.35,0.12-0.56v-9.89c0-0.19-0.05-0.37-0.14-0.55
				c-0.1-0.18-0.22-0.32-0.37-0.42c-0.12-0.07-0.27-0.13-0.47-0.18c-0.21-0.04-0.4-0.07-0.59-0.08v-0.62l3.19-0.21l0.13,0.11v1.05
				l0.08,0.02c0.33-0.38,0.73-0.7,1.21-0.95c0.48-0.25,0.96-0.37,1.44-0.37c0.58,0,1.1,0.12,1.58,0.37
				C215.05,87.68,215.46,88.01,215.8,88.42L215.8,88.42z M214.28,95.09L214.28,95.09c0.25-0.39,0.43-0.84,0.55-1.36
				c0.12-0.52,0.18-1.09,0.18-1.73c0-0.46-0.06-0.94-0.15-1.43c-0.1-0.48-0.26-0.9-0.47-1.27c-0.21-0.36-0.49-0.66-0.84-0.88
				c-0.35-0.23-0.76-0.34-1.24-0.34c-0.47,0-0.86,0.1-1.19,0.3c-0.33,0.21-0.61,0.45-0.85,0.74v5.5c0.05,0.17,0.15,0.35,0.27,0.53
				c0.13,0.18,0.27,0.34,0.43,0.48c0.19,0.16,0.41,0.28,0.63,0.38c0.23,0.1,0.51,0.15,0.83,0.15c0.35,0,0.69-0.09,1.02-0.28
				C213.79,95.69,214.06,95.43,214.28,95.09L214.28,95.09z M223.91,96.6L223.91,96.6h-4.52v-0.62c0.15-0.01,0.29-0.03,0.45-0.04
				c0.15-0.01,0.29-0.03,0.4-0.07c0.18-0.06,0.31-0.16,0.4-0.3c0.08-0.14,0.13-0.33,0.13-0.55v-5.74c0-0.2-0.05-0.39-0.14-0.55
				c-0.09-0.17-0.21-0.31-0.38-0.42c-0.12-0.08-0.28-0.14-0.51-0.2c-0.22-0.05-0.43-0.08-0.62-0.1v-0.62l3.29-0.21l0.13,0.13v7.58
				c0,0.22,0.04,0.4,0.12,0.55c0.09,0.14,0.22,0.25,0.4,0.32c0.14,0.05,0.27,0.1,0.41,0.14c0.13,0.04,0.28,0.06,0.44,0.07V96.6
				L223.91,96.6z M222.73,83.52L222.73,83.52c0,0.36-0.12,0.67-0.35,0.94c-0.24,0.27-0.52,0.4-0.87,0.4c-0.32,0-0.6-0.13-0.83-0.38
				c-0.23-0.26-0.36-0.55-0.36-0.87c0-0.35,0.12-0.65,0.36-0.91c0.24-0.26,0.51-0.39,0.83-0.39c0.36,0,0.65,0.13,0.88,0.37
				C222.61,82.92,222.73,83.2,222.73,83.52L222.73,83.52z M231.83,96.2L231.83,96.2c-0.41,0.17-0.79,0.31-1.16,0.43
				c-0.37,0.11-0.81,0.17-1.34,0.17c-0.78,0-1.33-0.2-1.65-0.59c-0.32-0.39-0.48-0.95-0.48-1.66v-6.3h-1.68v-0.9h1.72v-2.9h1.72v2.9
				h2.66v0.9h-2.65v5.21c0,0.4,0.02,0.72,0.04,0.98c0.03,0.26,0.1,0.49,0.2,0.68c0.1,0.18,0.25,0.32,0.45,0.42
				c0.2,0.09,0.48,0.14,0.81,0.14c0.16,0,0.39-0.02,0.69-0.04c0.3-0.03,0.52-0.06,0.64-0.11V96.2L231.83,96.2z M242.63,96.43
				L242.63,96.43c-0.3,0.11-0.56,0.19-0.79,0.26c-0.22,0.07-0.48,0.1-0.77,0.1c-0.49,0-0.89-0.11-1.18-0.34
				c-0.3-0.23-0.49-0.57-0.57-1h-0.06c-0.4,0.45-0.84,0.8-1.31,1.03c-0.46,0.24-1.03,0.36-1.69,0.36c-0.69,0-1.27-0.21-1.72-0.64
				c-0.45-0.42-0.67-0.98-0.67-1.68c0-0.36,0.05-0.67,0.15-0.96c0.1-0.28,0.25-0.54,0.45-0.77c0.16-0.18,0.36-0.35,0.62-0.49
				c0.26-0.15,0.5-0.27,0.73-0.36c0.28-0.11,0.86-0.3,1.73-0.59c0.86-0.28,1.45-0.51,1.75-0.68v-0.92c0-0.08-0.02-0.24-0.05-0.47
				c-0.04-0.24-0.11-0.45-0.22-0.66c-0.13-0.23-0.31-0.43-0.54-0.6c-0.23-0.17-0.56-0.26-0.99-0.26c-0.28,0-0.56,0.05-0.81,0.14
				c-0.25,0.1-0.43,0.2-0.52,0.31c0,0.12,0.03,0.31,0.09,0.55c0.06,0.24,0.09,0.47,0.09,0.67c0,0.22-0.1,0.42-0.29,0.6
				c-0.2,0.18-0.47,0.27-0.82,0.27c-0.31,0-0.54-0.11-0.69-0.33c-0.15-0.22-0.22-0.47-0.22-0.75c0-0.29,0.1-0.56,0.31-0.83
				c0.21-0.26,0.47-0.5,0.8-0.71c0.28-0.18,0.62-0.32,1.02-0.45c0.41-0.12,0.8-0.18,1.19-0.18c0.52,0,0.99,0.04,1.38,0.11
				c0.4,0.07,0.75,0.23,1.08,0.46c0.32,0.23,0.56,0.55,0.73,0.95c0.16,0.4,0.25,0.91,0.25,1.54c0,0.89-0.02,1.69-0.03,2.38
				c-0.02,0.69-0.03,1.45-0.03,2.27c0,0.24,0.04,0.44,0.13,0.59c0.09,0.14,0.22,0.26,0.4,0.36c0.1,0.06,0.25,0.09,0.45,0.09
				c0.21,0.01,0.42,0.01,0.64,0.01V96.43L242.63,96.43z M239.32,91.46L239.32,91.46c-0.53,0.16-1.01,0.31-1.41,0.46
				c-0.41,0.15-0.78,0.34-1.13,0.57c-0.32,0.21-0.57,0.47-0.75,0.76c-0.19,0.29-0.27,0.64-0.27,1.05c0,0.52,0.14,0.9,0.41,1.15
				c0.27,0.24,0.62,0.37,1.04,0.37c0.44,0,0.84-0.11,1.18-0.32c0.34-0.22,0.63-0.47,0.86-0.77L239.32,91.46z"/>
			<path class="st0" d="M248.94,96.6h-4.54v-0.62c0.14-0.01,0.3-0.03,0.46-0.04c0.17-0.02,0.3-0.04,0.41-0.07
				c0.18-0.06,0.31-0.16,0.39-0.3c0.09-0.14,0.14-0.33,0.14-0.56V84.26c0-0.22-0.05-0.44-0.15-0.63c-0.1-0.2-0.22-0.36-0.38-0.47
				c-0.11-0.08-0.32-0.14-0.62-0.21c-0.3-0.06-0.54-0.1-0.72-0.11v-0.61l3.52-0.22l0.13,0.14v12.76c0,0.22,0.05,0.4,0.12,0.54
				c0.08,0.15,0.21,0.25,0.39,0.33c0.14,0.07,0.27,0.11,0.41,0.15c0.14,0.03,0.29,0.05,0.45,0.06V96.6z"/>
		</g>
	</g>
	<g>
		<path class="st0" d="M121.57,10.69c0.31,0.35,0.55,0.73,0.69,1.14c0.15,0.41,0.22,0.9,0.22,1.45c0,1.31-0.48,2.39-1.45,3.24
			c-0.97,0.85-2.17,1.27-3.6,1.27c-0.66,0-1.32-0.1-1.99-0.31c-0.66-0.21-1.23-0.46-1.71-0.75l-0.45,0.76h-0.84l-0.15-5.08h0.85
			c0.17,0.63,0.38,1.19,0.61,1.7c0.23,0.51,0.54,0.98,0.92,1.42c0.36,0.41,0.79,0.74,1.27,0.98c0.48,0.24,1.05,0.37,1.69,0.37
			c0.48,0,0.9-0.06,1.26-0.19c0.36-0.13,0.65-0.3,0.87-0.53c0.22-0.23,0.39-0.5,0.5-0.81c0.11-0.31,0.16-0.67,0.16-1.07
			c0-0.59-0.17-1.15-0.5-1.66c-0.34-0.51-0.83-0.9-1.49-1.17c-0.45-0.18-0.97-0.38-1.56-0.6c-0.59-0.22-1.09-0.43-1.52-0.62
			c-0.84-0.38-1.49-0.87-1.95-1.48c-0.46-0.61-0.69-1.41-0.69-2.39c0-0.56,0.11-1.09,0.34-1.58c0.23-0.49,0.56-0.92,0.98-1.31
			c0.4-0.36,0.88-0.65,1.43-0.85c0.55-0.21,1.13-0.31,1.72-0.31c0.68,0,1.29,0.1,1.83,0.31c0.54,0.21,1.03,0.45,1.48,0.73l0.43-0.71
			h0.84l0.08,4.92h-0.85c-0.15-0.56-0.33-1.1-0.52-1.62c-0.19-0.52-0.44-0.98-0.75-1.4c-0.3-0.4-0.67-0.73-1.1-0.97
			c-0.43-0.24-0.96-0.36-1.59-0.36c-0.66,0-1.23,0.21-1.69,0.64c-0.47,0.43-0.7,0.94-0.7,1.56c0,0.64,0.15,1.17,0.45,1.59
			c0.3,0.42,0.74,0.77,1.31,1.04c0.51,0.24,1.01,0.45,1.5,0.63c0.49,0.18,0.97,0.37,1.43,0.57c0.42,0.18,0.82,0.39,1.21,0.62
			C120.95,10.12,121.29,10.39,121.57,10.69z"/>
		<path class="st0" d="M127.77,3.01c0,0.4-0.13,0.74-0.39,1.04c-0.26,0.3-0.58,0.44-0.97,0.44c-0.36,0-0.66-0.14-0.92-0.42
			c-0.26-0.28-0.39-0.6-0.39-0.97c0-0.38,0.13-0.72,0.39-1c0.26-0.29,0.57-0.43,0.92-0.43c0.4,0,0.72,0.13,0.98,0.4
			C127.64,2.34,127.77,2.65,127.77,3.01L127.77,3.01z M129.07,17.5L129.07,17.5h-4.97v-0.69c0.16-0.01,0.33-0.03,0.5-0.04
			c0.17-0.01,0.32-0.04,0.44-0.08c0.2-0.06,0.34-0.17,0.43-0.33c0.09-0.16,0.14-0.36,0.14-0.61V9.39c0-0.22-0.05-0.43-0.15-0.61
			c-0.1-0.18-0.24-0.34-0.42-0.46c-0.13-0.08-0.32-0.15-0.57-0.21c-0.25-0.06-0.48-0.1-0.69-0.11V7.3l3.64-0.23l0.15,0.15v8.4
			c0,0.24,0.05,0.45,0.14,0.61c0.09,0.16,0.24,0.28,0.44,0.36c0.15,0.06,0.3,0.11,0.45,0.15c0.15,0.04,0.31,0.06,0.49,0.08V17.5z"/>
		<path class="st0" d="M138.24,8.52c0,0.36-0.09,0.67-0.26,0.95c-0.17,0.27-0.44,0.41-0.8,0.41c-0.39,0-0.69-0.1-0.89-0.3
			c-0.2-0.2-0.31-0.42-0.31-0.67c0-0.15,0.01-0.29,0.04-0.42c0.02-0.13,0.05-0.25,0.07-0.38c-0.33,0-0.71,0.13-1.15,0.4
			c-0.44,0.26-0.81,0.64-1.12,1.13v6c0,0.24,0.05,0.44,0.14,0.6c0.09,0.15,0.24,0.27,0.44,0.34c0.17,0.07,0.4,0.12,0.67,0.16
			c0.27,0.03,0.51,0.06,0.72,0.07v0.69h-5.43v-0.69c0.16-0.01,0.33-0.03,0.5-0.04c0.17-0.01,0.32-0.04,0.44-0.08
			c0.19-0.06,0.34-0.17,0.43-0.33c0.09-0.16,0.14-0.36,0.14-0.61V9.39c0-0.22-0.05-0.43-0.15-0.64c-0.1-0.21-0.24-0.38-0.42-0.5
			c-0.13-0.08-0.29-0.14-0.47-0.18c-0.18-0.04-0.38-0.06-0.58-0.08V7.3l3.43-0.23l0.15,0.15v1.45h0.05
			c0.43-0.56,0.91-0.99,1.44-1.29c0.53-0.29,1.01-0.44,1.45-0.44c0.44,0,0.8,0.14,1.07,0.43C138.1,7.66,138.24,8.04,138.24,8.52z"/>
		<path class="st0" d="M159.89,17.5h-6.15v-0.74c0.17-0.01,0.41-0.03,0.73-0.06c0.32-0.03,0.53-0.07,0.65-0.13
			c0.21-0.08,0.36-0.21,0.46-0.38c0.1-0.17,0.15-0.39,0.15-0.66v-5.28h-6.97v5.16c0,0.24,0.04,0.45,0.12,0.62
			c0.08,0.17,0.24,0.31,0.48,0.44c0.12,0.06,0.33,0.13,0.63,0.19c0.3,0.06,0.54,0.1,0.72,0.1v0.74h-6.15v-0.74
			c0.17-0.01,0.41-0.03,0.73-0.06c0.32-0.03,0.53-0.07,0.65-0.13c0.21-0.08,0.36-0.21,0.46-0.38c0.1-0.17,0.15-0.39,0.15-0.66V4.82
			c0-0.22-0.05-0.43-0.14-0.61c-0.09-0.18-0.25-0.33-0.47-0.43c-0.19-0.09-0.42-0.17-0.68-0.24c-0.27-0.07-0.5-0.11-0.7-0.13V2.67
			h6.15v0.74c-0.2,0.01-0.43,0.04-0.72,0.09c-0.28,0.06-0.49,0.11-0.63,0.16c-0.24,0.08-0.4,0.22-0.48,0.42
			c-0.08,0.2-0.12,0.41-0.12,0.64v4.6h6.97V4.82c0-0.22-0.05-0.43-0.14-0.61c-0.09-0.18-0.25-0.33-0.47-0.43
			c-0.19-0.09-0.42-0.17-0.68-0.24c-0.27-0.07-0.5-0.11-0.7-0.13V2.67h6.15v0.74c-0.19,0.01-0.43,0.04-0.72,0.09
			c-0.28,0.06-0.49,0.11-0.63,0.16c-0.24,0.08-0.4,0.22-0.48,0.42c-0.08,0.2-0.12,0.41-0.12,0.64v10.69c0,0.24,0.04,0.45,0.12,0.62
			c0.08,0.17,0.24,0.31,0.48,0.44c0.12,0.06,0.33,0.13,0.63,0.19c0.3,0.06,0.54,0.1,0.72,0.1V17.5z"/>
		<path class="st0" d="M165.3,16.29c0,0.39-0.14,0.72-0.42,1c-0.28,0.27-0.62,0.41-1.01,0.41c-0.39,0-0.73-0.14-1.01-0.41
			c-0.28-0.28-0.42-0.61-0.42-1c0-0.39,0.14-0.73,0.42-1.01s0.62-0.42,1.01-0.42c0.39,0,0.73,0.14,1.01,0.42
			C165.15,15.57,165.3,15.9,165.3,16.29z"/>
		<path class="st0" d="M187.27,3.41c-0.19,0.01-0.49,0.06-0.9,0.17c-0.4,0.1-0.69,0.21-0.87,0.32c-0.25,0.17-0.42,0.51-0.51,1
			c-0.09,0.49-0.13,1.12-0.13,1.88v10.86h-0.91l-8.98-12.13v7.65c0,0.86,0.05,1.52,0.16,1.97c0.11,0.46,0.27,0.79,0.5,0.98
			c0.16,0.15,0.49,0.3,0.99,0.43c0.5,0.13,0.83,0.2,0.99,0.21v0.74h-6.08v-0.74c0.19-0.01,0.5-0.08,0.95-0.2
			c0.45-0.12,0.72-0.23,0.84-0.33c0.24-0.2,0.41-0.49,0.5-0.89c0.09-0.4,0.14-1.09,0.14-2.05v-7.3c0-0.32-0.06-0.64-0.17-0.96
			c-0.11-0.32-0.26-0.57-0.45-0.74c-0.25-0.23-0.59-0.43-1.02-0.59c-0.43-0.16-0.78-0.25-1.04-0.27V2.67h4.24l8.33,11.3V6.92
			c0-0.86-0.06-1.53-0.17-1.99c-0.11-0.46-0.27-0.77-0.48-0.92c-0.2-0.13-0.51-0.26-0.96-0.39c-0.44-0.13-0.78-0.2-1.01-0.21V2.67
			h6.03V3.41z"/>
		<path class="st0" d="M191.78,16.29c0,0.39-0.14,0.72-0.42,1c-0.28,0.27-0.62,0.41-1.01,0.41c-0.39,0-0.73-0.14-1.01-0.41
			c-0.28-0.28-0.42-0.61-0.42-1c0-0.39,0.14-0.73,0.42-1.01c0.28-0.28,0.62-0.42,1.01-0.42c0.39,0,0.73,0.14,1.01,0.42
			C191.64,15.57,191.78,15.9,191.78,16.29z"/>
	</g>
	<rect x="55.36" y="27.52" class="st1" width="193.36" height="0.79"/>
	<rect x="55.36" y="107.91" class="st1" width="193.36" height="0.79"/>
	<path class="st2" d="M57.89,128.93v6.28h-2.53v-15.14h5.6c1.69,0,3,0.38,3.92,1.14c0.92,0.76,1.38,1.85,1.38,3.27
		c0,0.78-0.2,1.46-0.61,2.02c-0.4,0.56-1,1.02-1.78,1.36c0.85,0.27,1.47,0.71,1.84,1.32c0.37,0.61,0.56,1.37,0.56,2.26v1.26
		c0,0.44,0.06,0.88,0.17,1.3c0.11,0.42,0.3,0.75,0.56,0.97v0.24h-2.6c-0.28-0.23-0.46-0.59-0.54-1.08
		c-0.08-0.49-0.12-0.97-0.12-1.45v-1.22c0-0.78-0.22-1.4-0.66-1.85c-0.44-0.46-1.05-0.68-1.83-0.68H57.89L57.89,128.93z
		 M57.89,126.9L57.89,126.9h2.93c1.01,0,1.75-0.2,2.22-0.58c0.46-0.39,0.7-0.98,0.7-1.78c0-0.77-0.23-1.36-0.68-1.8
		c-0.46-0.43-1.15-0.65-2.09-0.65h-3.07V126.9L57.89,126.9z M79.01,128.39L79.01,128.39h-6.62v4.79h7.69v2.02H69.86v-15.14h10.14
		v2.02h-7.61v4.28h6.62V128.39L79.01,128.39z M90.8,131.31L90.8,131.31c0-0.63-0.23-1.14-0.7-1.54c-0.47-0.4-1.3-0.76-2.48-1.07
		c-1.69-0.44-2.99-1.03-3.9-1.76c-0.91-0.73-1.37-1.69-1.37-2.88c0-1.22,0.5-2.23,1.51-3.02c1.01-0.79,2.31-1.19,3.9-1.19
		c1.66,0,3,0.45,4.01,1.35c1.01,0.89,1.5,1.97,1.46,3.23l-0.02,0.06h-2.42c0-0.77-0.26-1.41-0.79-1.88
		c-0.53-0.48-1.28-0.72-2.26-0.72c-0.92,0-1.63,0.2-2.13,0.6c-0.5,0.4-0.75,0.92-0.75,1.55c0,0.57,0.27,1.05,0.81,1.43
		c0.54,0.38,1.43,0.74,2.67,1.08c1.63,0.44,2.87,1.04,3.71,1.81c0.84,0.77,1.27,1.75,1.27,2.94c0,1.26-0.5,2.26-1.51,3.01
		c-1.01,0.75-2.34,1.12-3.98,1.12c-1.58,0-2.97-0.42-4.16-1.26c-1.19-0.84-1.77-1.99-1.74-3.45l0.02-0.06h2.44
		c0,0.92,0.32,1.61,0.95,2.06c0.64,0.45,1.47,0.68,2.48,0.68c0.94,0,1.66-0.19,2.19-0.56C90.54,132.46,90.8,131.95,90.8,131.31
		L90.8,131.31z M98.9,129.46L98.9,129.46v5.75h-2.53v-15.14h5.92c1.67,0,2.98,0.43,3.93,1.29c0.94,0.86,1.42,2,1.42,3.4
		c0,1.42-0.48,2.56-1.42,3.41c-0.95,0.86-2.26,1.29-3.93,1.29H98.9L98.9,129.46z M98.9,127.44L98.9,127.44h3.39
		c0.94,0,1.64-0.25,2.11-0.75c0.47-0.5,0.71-1.13,0.71-1.9c0-0.77-0.24-1.41-0.71-1.92c-0.47-0.51-1.17-0.77-2.11-0.77H98.9V127.44
		L98.9,127.44z M119.68,128.39L119.68,128.39h-6.62v4.79h7.68v2.02h-10.21v-15.14h10.14v2.02h-7.61v4.28h6.62V128.39L119.68,128.39z
		 M134.31,130.18L134.31,130.18l0.02,0.06c0.03,1.53-0.47,2.78-1.49,3.74c-1.02,0.96-2.41,1.44-4.16,1.44
		c-1.77,0-3.21-0.59-4.31-1.78c-1.11-1.19-1.66-2.71-1.66-4.56v-2.88c0-1.84,0.54-3.36,1.64-4.56c1.09-1.2,2.51-1.79,4.26-1.79
		c1.79,0,3.2,0.47,4.23,1.41c1.03,0.94,1.53,2.2,1.5,3.79l-0.02,0.06h-2.44c0-1.02-0.28-1.81-0.83-2.38
		c-0.55-0.57-1.37-0.86-2.44-0.86c-1.03,0-1.85,0.41-2.46,1.22c-0.61,0.82-0.91,1.84-0.91,3.08v2.9c0,1.25,0.31,2.28,0.93,3.1
		c0.62,0.82,1.46,1.22,2.51,1.22c1.05,0,1.84-0.28,2.38-0.84c0.54-0.56,0.81-1.35,0.81-2.38H134.31L134.31,130.18z M147.22,122.09
		L147.22,122.09h-4.58v13.12h-2.53v-13.12h-4.57v-2.02h11.68V122.09L147.22,122.09z M166.54,128.73L166.54,128.73h-6.63v6.48h-2.53
		v-15.14h10.22v2.02h-7.7v4.62h6.63V128.73L166.54,128.73z M181.93,129L181.93,129c0,1.85-0.58,3.38-1.74,4.6
		c-1.16,1.22-2.67,1.82-4.52,1.82c-1.81,0-3.29-0.61-4.42-1.82c-1.14-1.21-1.7-2.75-1.7-4.6v-2.73c0-1.84,0.56-3.37,1.7-4.59
		c1.13-1.22,2.61-1.83,4.41-1.83c1.85,0,3.36,0.61,4.53,1.83c1.16,1.22,1.75,2.75,1.75,4.59V129L181.93,129z M179.41,126.26
		L179.41,126.26c0-1.26-0.34-2.29-1.02-3.11c-0.67-0.81-1.59-1.21-2.74-1.21c-1.11,0-1.98,0.41-2.63,1.21
		c-0.64,0.81-0.97,1.85-0.97,3.11V129c0,1.27,0.32,2.32,0.97,3.13c0.65,0.81,1.53,1.22,2.64,1.22c1.16,0,2.07-0.4,2.74-1.21
		c0.67-0.81,1.01-1.86,1.01-3.14V126.26L179.41,126.26z M187.58,128.93L187.58,128.93v6.28h-2.53v-15.14h5.59
		c1.69,0,3,0.38,3.92,1.14c0.92,0.76,1.38,1.85,1.38,3.27c0,0.78-0.2,1.46-0.61,2.02c-0.41,0.56-1,1.02-1.78,1.36
		c0.85,0.27,1.47,0.71,1.84,1.32c0.37,0.61,0.56,1.37,0.56,2.26v1.26c0,0.44,0.06,0.88,0.17,1.3c0.11,0.42,0.3,0.75,0.56,0.97v0.24
		h-2.6c-0.28-0.23-0.46-0.59-0.54-1.08c-0.08-0.49-0.12-0.97-0.12-1.45v-1.22c0-0.78-0.22-1.4-0.66-1.85
		c-0.44-0.46-1.05-0.68-1.83-0.68H187.58L187.58,128.93z M187.58,126.9L187.58,126.9h2.93c1.01,0,1.75-0.2,2.21-0.58
		c0.46-0.39,0.7-0.98,0.7-1.78c0-0.77-0.23-1.36-0.69-1.8c-0.46-0.43-1.15-0.65-2.09-0.65h-3.07V126.9L187.58,126.9z M209.86,133.19
		L209.86,133.19h6.96v2.02h-9.49v-15.14h2.53V133.19L209.86,133.19z M221.92,135.21L221.92,135.21h-2.53v-15.14h2.53V135.21
		L221.92,135.21z M234.93,128.73L234.93,128.73h-6.63v6.48h-2.53v-15.14h10.22v2.02h-7.7v4.62h6.63V128.73L234.93,128.73z
		 M247.66,128.39L247.66,128.39h-6.62v4.79h7.69v2.02h-10.21v-15.14h10.14v2.02h-7.61v4.28h6.62V128.39z"/>
</g>
</svg>
